<svg width="20" height="12" viewBox="0 0 20 12" fill="none" xmlns="http://www.w3.org/2000/svg">
<path fill-rule="evenodd" clip-rule="evenodd" d="M18.4743 0.500671H17.3705C16.7609 0.500671 16.2667 0.948387 16.2667 1.50067V10.1673C16.2667 10.7196 16.7609 11.1673 17.3705 11.1673H18.4743C19.0839 11.1673 19.5781 10.7196 19.5781 10.1673V1.50067C19.5781 0.948387 19.0839 0.500671 18.4743 0.500671ZM12.2185 2.83401H13.3223C13.9319 2.83401 14.4261 3.28172 14.4261 3.83401V10.1673C14.4261 10.7196 13.9319 11.1673 13.3223 11.1673H12.2185C11.6088 11.1673 11.1146 10.7196 11.1146 10.1673V3.83401C11.1146 3.28172 11.6088 2.83401 12.2185 2.83401ZM8.17023 5.16734H7.06641C6.45678 5.16734 5.96259 5.61505 5.96259 6.16734V10.1673C5.96259 10.7196 6.45678 11.1673 7.06641 11.1673H8.17023C8.77985 11.1673 9.27405 10.7196 9.27405 10.1673V6.16734C9.27405 5.61505 8.77985 5.16734 8.17023 5.16734ZM3.01823 7.16734H1.91439C1.30475 7.16734 0.810547 7.61505 0.810547 8.16734V10.1673C0.810547 10.7196 1.30475 11.1673 1.91439 11.1673H3.01823C3.62786 11.1673 4.12207 10.7196 4.12207 10.1673V8.16734C4.12207 7.61505 3.62786 7.16734 3.01823 7.16734Z" fill="black"/>
</svg>
