<svg width="17" height="12" viewBox="0 0 17 12" fill="none" xmlns="http://www.w3.org/2000/svg">
<path fill-rule="evenodd" clip-rule="evenodd" d="M8.55979 2.442C11.0062 2.4421 13.359 3.29353 15.132 4.82033C15.2655 4.93821 15.4789 4.93672 15.6104 4.817L16.8866 3.65033C16.9532 3.58961 16.9903 3.50736 16.9897 3.42178C16.9892 3.3362 16.951 3.25435 16.8836 3.19433C12.2301 -0.845214 4.8887 -0.845214 0.235192 3.19433C0.167783 3.2543 0.129536 3.33613 0.128914 3.42171C0.128292 3.50729 0.165348 3.58957 0.23188 3.65033L1.50848 4.817C1.63989 4.9369 1.85346 4.93839 1.98689 4.82033C3.76009 3.29343 6.11318 2.44199 8.55979 2.442ZM8.55979 6.23767C9.90391 6.23759 11.2001 6.69012 12.1964 7.50733C12.3312 7.62331 12.5434 7.6208 12.6748 7.50167L13.9496 6.335C14.0167 6.2738 14.054 6.19079 14.053 6.10452C14.052 6.01826 14.0129 5.93595 13.9444 5.876C10.9104 3.31962 6.21178 3.31962 3.17774 5.876C3.1092 5.93594 3.0701 6.0183 3.0692 6.10459C3.0683 6.19088 3.10568 6.27389 3.17295 6.335L4.44735 7.50167C4.57871 7.6208 4.79099 7.62331 4.92575 7.50733C5.92143 6.69066 7.21656 6.23817 8.55979 6.23767ZM11.1125 8.79148C11.1145 8.87799 11.0769 8.96139 11.0088 9.022L8.80404 11.0377C8.73941 11.0969 8.6513 11.1302 8.55936 11.1302C8.46742 11.1302 8.37931 11.0969 8.31468 11.0377L6.1096 9.022C6.04148 8.96135 6.00401 8.87792 6.00603 8.79141C6.00805 8.70491 6.04938 8.62299 6.12027 8.565C7.52828 7.48612 9.59044 7.48612 10.9985 8.565C11.0693 8.62303 11.1106 8.70498 11.1125 8.79148Z" fill="black"/>
</svg>
